<svg id="breakfest" xmlns="http://www.w3.org/2000/svg" width="73.123" height="63.971" viewBox="0 0 73.123 63.971">
  <g id="_008---Coffee-and-Croissant" data-name="008---Coffee-and-Croissant" fill="#5A4E4D">
    <path id="Shape" d="M52.56,17.034a.3.3,0,0,1,.308.016c.223.124,1.3.948,2.281,5.27-1.1.046-2.521.142-4.178.356.017-.487.021-.962.022-1.4C51,18.567,51.132,17.579,52.56,17.034Z" transform="translate(15.573 5.194)"/>
    <path id="Shape-2" data-name="Shape" d="M49.114,24.509a1.112,1.112,0,0,1,.875-.738c.242-.05.48-.085.745-.131a43.329,43.329,0,0,1,6.9-.6h.086a.611.611,0,0,1,.646.522,24.5,24.5,0,0,1-.347,7.79,19.658,19.658,0,0,1-2.268,5.283,29.9,29.9,0,0,0-7.977-9.4A11.563,11.563,0,0,0,49.114,24.509Z" transform="translate(14.596 7.038)"/>
    <path id="Shape-3" data-name="Shape" d="M39.667,29.01l6.545-2.5C53.2,29.258,57.44,38.223,58.223,39.9c-.722,1.248-3.046,4.4-9.02,6.678a21.762,21.762,0,0,1-6.4,1.456H41.081a10.331,10.331,0,0,1-2.682-.483c-.074-.32-.175-.759-.275-1.286-.621-3.234-1.706-11.361,1.543-17.259Z" transform="translate(11.439 8.099)"/>
    <path id="Shape-4" data-name="Shape" d="M38.042,43.7a17.431,17.431,0,0,1-4.9-2.539,22.494,22.494,0,0,1-4.9-5.757.783.783,0,0,1,.235-.953c.017-.016.034-.031.048-.047a46.38,46.38,0,0,1,5.733-4.218c.208-.131.415-.27.667-.416a.956.956,0,0,1,1.007-.022,10.444,10.444,0,0,0,2.631,1.195A32.386,32.386,0,0,0,38.042,43.7Z" transform="translate(8.607 9.047)"/>
    <path id="Shape-5" data-name="Shape" d="M27.1,26.837a.436.436,0,0,1,.285-.291c1.384-.522,2.017.1,3.629,2.168.277.354.573.732.892,1.112-1.423.954-2.594,1.839-3.479,2.552-1.358-3.026-1.6-4.834-1.326-5.542Z" transform="translate(8.249 8.057)"/>
    <path id="Shape-6" data-name="Shape" d="M0,31.058C0,25.91.768,20,6.75,20a11.765,11.765,0,0,1,3.695.576v2.806a8.722,8.722,0,0,0-3.695-.77c-3.823,0-4.139,4-4.139,8.447,0,4.521,1.547,7.22,4.139,7.22a11.448,11.448,0,0,0,3.695-.653v.653a14.128,14.128,0,0,0,.164,2.038,14.007,14.007,0,0,1-3.859.573C2.524,40.888,0,37.213,0,31.058Z" transform="translate(0 6.11)"/>
    <path id="Shape-7" data-name="Shape" d="M10.3,41.832a11.489,11.489,0,0,1-.3-2.638V18.306A1.306,1.306,0,0,1,11.306,17H40.027a1.306,1.306,0,0,1,1.306,1.306V30.9a3.552,3.552,0,0,0-1.98.392c-.377-.431-.74-.875-1.086-1.319-1.479-1.9-3.316-4.26-6.616-3a3.031,3.031,0,0,0-1.79,1.782c-.68,1.753-.087,4.516,1.774,8.4a3.289,3.289,0,0,0-.059,3.481A25.12,25.12,0,0,0,37.1,47.074c.228.176.465.337.7.5a11.652,11.652,0,0,1-8.214,3.371H21.75A11.684,11.684,0,0,1,10.3,41.832Z" transform="translate(3.055 5.194)"/>
    <path id="Shape-8" data-name="Shape" d="M71.887,47.611c0,1.415-1.828,2.611-3.982,2.611H7.982C5.828,50.222,4,49.026,4,47.611V45.119A.833.833,0,0,1,4.457,45H71.43a.833.833,0,0,1,.457.119Z" transform="translate(1.222 13.748)"/>
    <path id="Shape-9" data-name="Shape" d="M21.306,15.666A1.306,1.306,0,0,1,20,14.361a5.91,5.91,0,0,1,1.591-4.08,3.448,3.448,0,0,0,0-4.9A5.91,5.91,0,0,1,20,1.306a1.306,1.306,0,0,1,2.611,0,3.372,3.372,0,0,0,1.02,2.448,6.025,6.025,0,0,1,0,8.16,3.372,3.372,0,0,0-1.02,2.448A1.306,1.306,0,0,1,21.306,15.666Z" transform="translate(6.11)"/>
    <path id="Shape-10" data-name="Shape" d="M15.306,15.666A1.306,1.306,0,0,1,14,14.361a5.91,5.91,0,0,1,1.591-4.08,3.448,3.448,0,0,0,0-4.9A5.91,5.91,0,0,1,14,1.306a1.306,1.306,0,1,1,2.611,0,3.372,3.372,0,0,0,1.02,2.448,6.025,6.025,0,0,1,0,8.16,3.372,3.372,0,0,0-1.02,2.448A1.306,1.306,0,0,1,15.306,15.666Z" transform="translate(4.277)"/>
    <path id="Shape-11" data-name="Shape" d="M27.306,15.666A1.306,1.306,0,0,1,26,14.361a5.91,5.91,0,0,1,1.591-4.08,3.448,3.448,0,0,0,0-4.9A5.91,5.91,0,0,1,26,1.306a1.306,1.306,0,1,1,2.611,0,3.372,3.372,0,0,0,1.02,2.448,6.025,6.025,0,0,1,0,8.16,3.372,3.372,0,0,0-1.02,2.448A1.306,1.306,0,0,1,27.306,15.666Z" transform="translate(7.944)"/>
  </g>
</svg>
