<svg id="Component_2_1" data-name="Component 2 – 1" xmlns="http://www.w3.org/2000/svg" width="50.972" height="50.972" viewBox="0 0 50.972 50.972">
  <defs>
    <style>
      .cls-1 {
        fill: #8593ae;
      }
    </style>
  </defs>
  <g id="communications">
    <path id="Path_92" data-name="Path 92" class="cls-1" d="M229.872,213.4a16.527,16.527,0,0,0-9.063-14.716,22.474,22.474,0,0,1-22.129,22.129,16.482,16.482,0,0,0,23.1,6.773L229.8,229.8l-2.219-8.021a16.417,16.417,0,0,0,2.291-8.384Zm0,0" transform="translate(-178.9 -178.9)"/>
    <path id="Path_93" data-name="Path 93" class="cls-1" d="M38.926,19.463A19.463,19.463,0,1,0,2.7,29.356l-2.627,9.5,9.5-2.627A19.467,19.467,0,0,0,38.926,19.463Zm-22.45-4.53H13.49a5.973,5.973,0,1,1,10,4.408l-2.537,2.322v2.329H17.97V20.348l3.508-3.211a2.956,2.956,0,0,0,.972-2.2,2.987,2.987,0,0,0-5.973,0ZM17.97,26.979h2.987v2.987H17.97Zm0,0"/>
    <ellipse id="Ellipse_11" data-name="Ellipse 11" class="cls-1" cx="9.5" cy="12.5" rx="9.5" ry="12.5" transform="translate(10.972 7.972)"/>
  </g>
</svg>
