<svg xmlns="http://www.w3.org/2000/svg" width="154.577" height="148.137" viewBox="0 0 154.577 148.137">
  <g id="communications" transform="translate(0 0)">
    <path id="Path_68" data-name="Path 68" d="M8.75,17.612V47.484a4.829,4.829,0,0,0,8.721,2.86L34.944,26.565Z" transform="translate(47.606 95.822)" fill="#fff"/>
    <path id="Path_69" data-name="Path 69" d="M152.548.9a4.832,4.832,0,0,0-5.037-.348L2.6,76.226a4.833,4.833,0,0,0,.67,8.856l40.287,13.77,85.8-73.36L62.958,105.48l67.518,23.077a4.943,4.943,0,0,0,1.559.258,4.827,4.827,0,0,0,4.779-4.116L154.525,5.546A4.839,4.839,0,0,0,152.548.9Z" transform="translate(0 0)" fill="#fff"/>
  </g>
</svg>
