<svg xmlns="http://www.w3.org/2000/svg" width="73.123" height="63.971" viewBox="0 0 73.123 63.971">
  <g id="cuisine" transform="translate(-1 -1)" fill="#5A4E4D">
    <path id="Path_25" data-name="Path 25" d="M4.981,27.1,3.649,25.771a1.55,1.55,0,0,1,0-2.194l3.933-3.933a1.587,1.587,0,0,1,2.194,0l1.333,1.334c.621-.422,1.262-.817,1.924-1.178l-1.7-1.707a3.837,3.837,0,0,0-5.3,0L2.1,22.027a3.744,3.744,0,0,0,0,5.3L3.8,29.028C4.164,28.366,4.559,27.725,4.981,27.1Z" transform="translate(0 1.552)" />
    <ellipse id="Ellipse_7" data-name="Ellipse 7" cx="1" cy="1.5" rx="1" ry="1.5" transform="translate(29 55.836)" />
    <path id="Path_26" data-name="Path 26" d="M54.02,35.278a1.854,1.854,0,0,0,.055-.445A1.835,1.835,0,0,0,52.242,33H33.69L19.224,47.466a11.991,11.991,0,0,0,3.295,6.167l1.3,1.3h1.941a3.253,3.253,0,0,1-.2-1.1,3.294,3.294,0,0,1,3.29-3.29,3.334,3.334,0,0,1,.567.057,4.339,4.339,0,0,1,.557-.8c-.008-.139-.027-.277-.027-.418a9.806,9.806,0,0,1,12.381-9.459l9.859,2.689Z" transform="translate(1.764 3.097)" />
    <path id="Path_27" data-name="Path 27" d="M32.169,53.387a2.194,2.194,0,1,0-1.918-3.249,3.187,3.187,0,0,1,.732,2.888A2.191,2.191,0,0,0,32.169,53.387Z" transform="translate(2.831 4.645)" />
    <path id="Path_28" data-name="Path 28" d="M36.548,54.161a14.76,14.76,0,0,0,9.015-3.093l5.173-4.024V44.031L40.6,41.268a7.605,7.605,0,0,0-9.553,6.451,4.34,4.34,0,0,1,5.427,4.249,4.342,4.342,0,0,1-.61,2.194Z" transform="translate(2.908 3.871)" />
    <path id="Path_29" data-name="Path 29" d="M21.829,61.194h31.19L53.568,59H21.281Z" transform="translate(1.963 5.613)" />
    <path id="Path_30" data-name="Path 30" d="M23.839,19A20.838,20.838,0,0,0,10.59,55.923L39.923,26.591A20.944,20.944,0,0,0,23.839,19Z" transform="translate(0.194 1.742)" />
    <path id="Path_31" data-name="Path 31" d="M60.74,45.355l.667-.737a2.192,2.192,0,1,0-3.661-2.3,3.2,3.2,0,0,1-3,1.937L51,44.286v2.194l3.742-.027a3.2,3.2,0,0,1,3,1.936,2.194,2.194,0,1,0,3.662-2.3Z" transform="translate(4.839 3.868)" />
    <path id="Path_32" data-name="Path 32" d="M19,55H56.291v2.194H19Z" transform="translate(1.742 5.226)" />
    <path id="Path_33" data-name="Path 33" d="M39.612,20.743l1.551-1.551-1.928-1.929a3.556,3.556,0,0,1,2.516-6.07h4.121V9H41.75a5.749,5.749,0,0,0-4.066,9.815Z" transform="translate(3.387 0.774)" />
    <path id="Path_34" data-name="Path 34" d="M43,17.194a2.194,2.194,0,1,1,0,4.387v2.194A4.387,4.387,0,1,0,43,15Z" transform="translate(4.065 1.355)" />
    <path id="Path_35" data-name="Path 35" d="M51,13.228v.433h2.194v-.433A6.277,6.277,0,0,1,56,7.993L54.779,6.168A8.466,8.466,0,0,0,51,13.228Z" transform="translate(4.839 0.5)" />
    <path id="Path_36" data-name="Path 36" d="M49.514,10.55,51.066,9,50.007,7.94a2.781,2.781,0,0,1,1.968-4.747h5.993a2.2,2.2,0,0,1,2.194,2.194h2.194A4.392,4.392,0,0,0,57.968,1H51.975a4.974,4.974,0,0,0-3.518,8.491Z" transform="translate(4.452)"/>
    <path id="Path_37" data-name="Path 37" d="M61.584,9.28l-.689-.229L60.2,11.133l.688.228a2.709,2.709,0,0,1,0,5.139l-7.269,2.423L54.314,21,58.3,19.673a4.991,4.991,0,0,1,.052.6,4.892,4.892,0,0,1-4.18,4.818l-6.977,1A4.914,4.914,0,0,0,43,30.931h2.194a2.71,2.71,0,0,1,2.315-2.67l6.977-1a7.1,7.1,0,0,0,6.062-6.99,7.013,7.013,0,0,0-.128-1.306l1.165-.388a4.9,4.9,0,0,0,0-9.3Z" transform="translate(4.065 0.779)" />
  </g>
</svg>
