<svg id="dessert" xmlns="http://www.w3.org/2000/svg" width="53.123" height="63.971" viewBox="0 0 46.123 63.971" fill="#5A4E4D">
  <g id="Group_6" data-name="Group 6" >
    <g id="Group_5" data-name="Group 5" transform="translate(0)">
      <path id="Path_38" data-name="Path 38" d="M84.564,30.816a2.055,2.055,0,0,0-2.054-2.054H80.077a6.05,6.05,0,0,0-3.843-7.874A14.387,14.387,0,0,0,68.059,9.578,6.135,6.135,0,0,0,63.732,4.4,6.151,6.151,0,0,0,57.857,0a2.054,2.054,0,1,0,0,4.109,2.047,2.047,0,0,1,1.466.619,6.142,6.142,0,0,0-3.45,4.851A14.388,14.388,0,0,0,47.7,20.887a6.05,6.05,0,0,0-3.843,7.874H41.422a2.055,2.055,0,0,0-2.054,2.054A22.622,22.622,0,0,0,59.912,53.31v5.582H49.64a2.054,2.054,0,1,0,0,4.109H74.293a2.054,2.054,0,0,0,0-4.109H64.021V53.31A22.622,22.622,0,0,0,84.564,30.816Zm-22.6-22.6a2.054,2.054,0,1,1-2.054,2.054A2.057,2.057,0,0,1,61.966,8.218Zm0,20.544H49.64a2.054,2.054,0,1,1,0-4.109H74.293a2.054,2.054,0,0,1,0,4.109H70.184a2.055,2.055,0,0,0-2.054,2.054v4.109a2.054,2.054,0,0,1-4.109,0V30.816A2.054,2.054,0,0,0,61.966,28.761Z" transform="translate(-39.368)"/>
    </g>
  </g>
  <g id="Group_8" data-name="Group 8" transform="translate(35.396 0.102)">
    <g id="Group_7" data-name="Group 7">
      <path id="Path_39" data-name="Path 39" d="M343.134,2.636a6.159,6.159,0,0,0-8.715,0l-7.395,7.395a18.681,18.681,0,0,1,5.129,8.822,10.265,10.265,0,0,1,1.887,1.592l9.094-9.094A6.158,6.158,0,0,0,343.134,2.636Z" transform="translate(-327.024 -0.829)"/>
    </g>
  </g>
</svg>
