<svg xmlns="http://www.w3.org/2000/svg" width="360.794" height="67.314" viewBox="0 0 360.794 67.314">
  <g id="Logo" transform="translate(-62.988 -39.619)">
    <path id="path5073" d="M44.83,6.271a11.866,11.866,0,0,0-8.3,3.526,11.649,11.649,0,0,0-2.289,13.835,12.687,12.687,0,0,0,7.911,6.386,8.687,8.687,0,0,0,1.017.161c.145-1.269.3-2.538.431-3.808-2.482-.885-4.225-4.254-4.2-8.126.03-4.592,2.508-8.3,5.535-8.275s5.456,3.763,5.426,8.355c-.029,3.9-1.837,7.254-4.351,8.077.087,1.272.2,2.545.3,3.818a9.878,9.878,0,0,0,1.392-.193,12.83,12.83,0,0,0,8.765-8.066,11.93,11.93,0,0,0-6.2-14.41A12.3,12.3,0,0,0,44.83,6.271Z" transform="translate(148.537 57.378)" fill="#dda288"/>
    <text id="text4751" transform="translate(150.233 86.474)" fill="#dda288" font-size="34" font-family="Manjari-Thin, Manjari" font-weight="200"><tspan x="0" y="0">C</tspan></text>
    <text id="text4770" transform="translate(239.306 86.733)" fill="#dda288" font-size="34" font-family="Manjari-Thin, Manjari" font-weight="200"><tspan x="0" y="0">K</tspan></text>
    <text id="text4774" transform="translate(276.052 86.661)" fill="#dda288" font-size="33" font-family="Manjari-Thin, Manjari" font-weight="200"><tspan x="0" y="0">F</tspan></text>
    <text id="text4778" transform="translate(298.465 87.009)" fill="#dda288" font-size="34" font-family="Manjari-Thin, Manjari" font-weight="200"><tspan x="0" y="0">R</tspan></text>
    <text id="text4786" transform="translate(355.032 87.269)" fill="#dda288" font-size="34" font-family="Manjari-Thin, Manjari" font-weight="200"><tspan x="0" y="0">M</tspan></text>
    <text id="text4790" transform="translate(396.502 87.719)" fill="#dda288" font-size="34" font-family="Manjari-Thin, Manjari" font-weight="200"><tspan x="0" y="0">I</tspan></text>
    <text id="text4794" transform="translate(403.782 86.776)" fill="#dda288" font-size="33" font-family="Manjari-Thin, Manjari" font-weight="200"><tspan x="0" y="0">T</tspan></text>
    <rect id="rect4834" width="1.852" height="47.564" transform="translate(142.209 54.107)" fill="#dda288"/>
    <path id="path5073-6" d="M52.821,6.319a11.866,11.866,0,0,0-8.3,3.526,11.648,11.648,0,0,0-2.287,13.835,12.687,12.687,0,0,0,7.911,6.386,8.141,8.141,0,0,0,.822.138c.219-1.7.436-3.39.622-5.085l-1.715-.03a2.879,2.879,0,0,1-3.212-2.831L46.753,11.7a1.211,1.211,0,0,1,1.256-1.081l.041,0a1.107,1.107,0,0,1,1.217,1.035L49.2,20.928a1.013,1.013,0,0,0,1.1.881h.037a1.114,1.114,0,0,0,1.137-.925l.068-9.1A1.211,1.211,0,0,1,52.8,10.7h.041a1.106,1.106,0,0,1,1.217,1.033l-.069,9.1a1.016,1.016,0,0,0,1.1.881l.037,0a1.111,1.111,0,0,0,1.135-.923l.165-8.929a1.21,1.21,0,0,1,1.256-1.081h.041a1.105,1.105,0,0,1,1.216,1.033l-.187,10.212a3.388,3.388,0,0,1-3.513,3.024l-1.521.03c.127,1.732.286,3.463.447,5.194a10.378,10.378,0,0,0,1.528-.2,12.83,12.83,0,0,0,8.765-8.066,11.93,11.93,0,0,0-6.2-14.41A12.308,12.308,0,0,0,52.821,6.319Z" transform="translate(169.311 57.516)" fill="#dda288"/>
    <path id="path5073-6-2" d="M84.961,6.28a11.875,11.875,0,0,0-8.305,3.528A11.645,11.645,0,0,0,74.37,23.642a12.688,12.688,0,0,0,7.91,6.386,8.845,8.845,0,0,0,1.061.166l0-1.7c-.233-3.869-.144-10.057.1-17.487a1.253,1.253,0,0,1,1.161-1.332,1.022,1.022,0,0,1,.479.124V9.785l.072.058a1.249,1.249,0,0,1,.3.263,13.7,13.7,0,0,1,3.8,8.48c.225,4.223-2.152,8.022-3.194,10.022.057.565.119,1.083.178,1.627a10.568,10.568,0,0,0,1.585-.2A12.83,12.83,0,0,0,96.6,21.971a11.927,11.927,0,0,0-6.2-14.408A12.3,12.3,0,0,0,84.961,6.28Z" transform="translate(252.844 57.405)" fill="#dda288"/>
    <g id="layer1-2" transform="translate(62.988 39.619)">
      <g id="g9049" transform="translate(0 0)">
        <g id="g8983" transform="translate(43.519 0)">
          <g id="g8981">
            <path id="path8979" d="M33.682.937A8.676,8.676,0,0,0,27.668.254a7.783,7.783,0,0,0-4.792,3.312L13.442,18.355h5.584L27.087,5.721a3.016,3.016,0,0,1,1.858-1.282,3.365,3.365,0,0,1,2.332.269A2.582,2.582,0,0,0,34.585,3.9a2.054,2.054,0,0,0-.9-2.962Z" transform="translate(-13.442 0)" fill="#dda288"/>
          </g>
        </g>
        <g id="g8989" transform="translate(0 6.315)">
          <g id="g8987">
            <path id="path8985" d="M56.74,23.652a7.409,7.409,0,0,0-2.784-.54,2.509,2.509,0,0,0-.47.045L53.3,18.182a.178.178,0,0,0-.166-.172H15.474l7.879-3.119L44.8,6.367A2.323,2.323,0,0,0,46.12,3.3a2.451,2.451,0,0,0-3.164-1.281l-12.309,4.9a2.308,2.308,0,0,0-.086-.238A2.452,2.452,0,0,0,27.4,5.4L15.583,10.1a2.327,2.327,0,0,0-1.323,3.068,2.362,2.362,0,0,0,.113.228l-3.8,1.514-2.271.9L2.231,18.23A2.327,2.327,0,0,0,.908,21.3a2.427,2.427,0,0,0,2.244,1.459,2.482,2.482,0,0,0,.92-.177l3.055-1.216,3.284-1.307-.115,3.1a2.505,2.505,0,0,0-.47-.045,7.4,7.4,0,0,0-2.784.54,6.939,6.939,0,0,0-.475,12.763,7.381,7.381,0,0,0,3.207.752l-.807,21.7a3.742,3.742,0,0,0,1.1,2.8,3.975,3.975,0,0,0,2.837,1.175h37.97a3.974,3.974,0,0,0,2.837-1.175,3.734,3.734,0,0,0,1.1-2.795l-.807-21.706a7.38,7.38,0,0,0,3.207-.753,6.939,6.939,0,0,0-.474-12.764ZM9.949,32.472c-.041,0-.082-.006-.124-.006a2.326,2.326,0,1,1,0-4.651,2.5,2.5,0,0,0,.3-.019Zm44.008-.006c-.042,0-.082,0-.124.006L53.659,27.8a2.5,2.5,0,0,0,.3.019,2.326,2.326,0,1,1,0,4.651Z" transform="translate(-0.726 -1.845)" fill="#dda288"/>
          </g>
        </g>
      </g>
    </g>
  </g>
</svg>
