<?xml version="1.0" encoding="UTF-8" standalone="no"?>
<!-- Created with Inkscape (http://www.inkscape.org/) -->

<svg
   xmlns:dc="http://purl.org/dc/elements/1.1/"
   xmlns:cc="http://creativecommons.org/ns#"
   xmlns:rdf="http://www.w3.org/1999/02/22-rdf-syntax-ns#"
   xmlns:svg="http://www.w3.org/2000/svg"
   xmlns="http://www.w3.org/2000/svg"
   xmlns:xlink="http://www.w3.org/1999/xlink"
   xmlns:sodipodi="http://sodipodi.sourceforge.net/DTD/sodipodi-0.dtd"
   xmlns:inkscape="http://www.inkscape.org/namespaces/inkscape"
   width="75.382332mm"
   height="7.5799079mm"
   viewBox="0 0 75.382331 7.5799077"
   version="1.1"
   id="svg8"
   inkscape:version="0.92.4 (5da689c313, 2019-01-14)"
   sodipodi:docname="logo_name.svg"
   inkscape:export-filename="D:\Zadania garfika\cookfromit_new.png"
   inkscape:export-xdpi="96"
   inkscape:export-ydpi="96">
  <defs
     id="defs2">
    <linearGradient
       inkscape:collect="always"
       id="linearGradient5067">
      <stop
         style="stop-color:#DDA288;stop-opacity:1;"
         offset="0"
         id="stop5063" />
      <stop
         style="stop-color:#DDA288;stop-opacity:0;"
         offset="1"
         id="stop5065" />
    </linearGradient>
    <radialGradient
       inkscape:collect="always"
       xlink:href="#linearGradient5067"
       id="radialGradient5071"
       cx="99.399345"
       cy="49.405293"
       fx="99.399345"
       fy="49.405293"
       r="3.5217488"
       gradientTransform="matrix(1,0,0,1.0146735,0,-0.72494929)"
       gradientUnits="userSpaceOnUse" />
  </defs>
  <sodipodi:namedview
     id="base"
     pagecolor="#ffffff"
     bordercolor="#666666"
     borderopacity="1.0"
     inkscape:pageopacity="0.0"
     inkscape:pageshadow="2"
     inkscape:zoom="3.959798"
     inkscape:cx="132.41372"
     inkscape:cy="-20.779115"
     inkscape:document-units="mm"
     inkscape:current-layer="layer1"
     showgrid="false"
     inkscape:window-width="1920"
     inkscape:window-height="1017"
     inkscape:window-x="-8"
     inkscape:window-y="-8"
     inkscape:window-maximized="1"
     inkscape:snap-nodes="false">
    <inkscape:grid
       type="xygrid"
       id="grid4817"
       originx="-88.19838"
       originy="-243.62504" />
  </sodipodi:namedview>
  <metadata
     id="metadata5">
    <rdf:RDF>
      <cc:Work
         rdf:about="">
        <dc:format>image/svg+xml</dc:format>
        <dc:type
           rdf:resource="http://purl.org/dc/dcmitype/StillImage" />
        <dc:title></dc:title>
      </cc:Work>
    </rdf:RDF>
  </metadata>
  <g
     inkscape:label="Layer 1"
     inkscape:groupmode="layer"
     id="layer1"
     transform="translate(-88.198385,-45.795047)">
    <path
       style="fill:#DDA288;fill-opacity:1;stroke:#DDA288;stroke-width:0.8444379;stroke-miterlimit:4;stroke-dasharray:none;stroke-opacity:1;paint-order:stroke markers fill"
       d="m 138.23828,24.462891 c -3.29916,0.01187 -6.49126,1.332253 -9.08594,3.880859 -4.13908,4.065615 -5.11993,10.027358 -2.5039,15.224609 1.70552,3.38837 5.1607,6.193754 8.65625,7.027344 0.26325,0.06275 0.57497,0.112429 0.90234,0.154297 0.15711,-1.373931 0.32676,-2.746721 0.4668,-4.121094 a 6.0537302,9.1818729 0.34466879 0 1 -4.64063,-8.976562 6.0537302,9.1818729 0.34466879 0 1 6.11328,-9.136719 6.0537302,9.1818729 0.34466879 0 1 5.99219,9.224609 6.0537302,9.1818729 0.34466879 0 1 -4.80469,8.919922 c 0.0946,1.388279 0.21814,2.777229 0.33008,4.166016 0.63992,-0.04365 1.24342,-0.110796 1.7168,-0.220703 4.21689,-0.979102 8.22349,-4.687139 9.5918,-8.876953 2.02223,-6.192121 -0.87839,-12.968057 -6.78711,-15.855469 -1.94959,-0.95271 -3.96777,-1.417279 -5.94727,-1.410156 z"
       transform="matrix(0.26458333,0,0,0.26458333,62.988255,39.618552)"
       id="path5073"
       inkscape:connector-curvature="0" />
    <text
       xml:space="preserve"
       style="font-style:normal;font-variant:normal;font-weight:100;font-stretch:normal;font-size:10.58333302px;line-height:1.25;font-family:Manjari;-inkscape-font-specification:'Manjari, Thin';font-variant-ligatures:normal;font-variant-caps:normal;font-variant-numeric:normal;font-feature-settings:normal;text-align:start;letter-spacing:0px;word-spacing:0px;writing-mode:lr-tb;text-anchor:start;fill:#DDA288;fill-opacity:1;stroke:none;stroke-width:0.26458332"
       x="87.784973"
       y="53.110863"
       id="text4751"><tspan
         id="tspan4757"
         style="font-style:normal;font-variant:normal;font-weight:100;font-stretch:normal;font-size:10.58333302px;font-family:Manjari;-inkscape-font-specification:'Manjari, Thin';font-variant-ligatures:normal;font-variant-caps:normal;font-variant-numeric:normal;font-feature-settings:normal;text-align:start;writing-mode:lr-tb;text-anchor:start">C</tspan></text>
    <text
       id="text4770"
       y="53.186558"
       x="111.45194"
       style="font-style:normal;font-variant:normal;font-weight:100;font-stretch:normal;font-size:10.58333302px;line-height:1.25;font-family:Manjari;-inkscape-font-specification:'Manjari, Thin';font-variant-ligatures:normal;font-variant-caps:normal;font-variant-numeric:normal;font-feature-settings:normal;text-align:start;letter-spacing:0px;word-spacing:0px;writing-mode:lr-tb;text-anchor:start;fill:#DDA288;fill-opacity:1;stroke:none;stroke-width:0.26458332"
       xml:space="preserve"><tspan
         id="tspan4768"
         style="font-style:normal;font-variant:normal;font-weight:100;font-stretch:normal;font-size:10.58333302px;font-family:Manjari;-inkscape-font-specification:'Manjari, Thin';font-variant-ligatures:normal;font-variant-caps:normal;font-variant-numeric:normal;font-feature-settings:normal;text-align:start;writing-mode:lr-tb;text-anchor:start">K</tspan></text>
    <text
       id="text4774"
       y="53.165596"
       x="121.97214"
       style="font-style:normal;font-variant:normal;font-weight:100;font-stretch:normal;font-size:10.58333302px;line-height:1.25;font-family:Manjari;-inkscape-font-specification:'Manjari, Thin';font-variant-ligatures:normal;font-variant-caps:normal;font-variant-numeric:normal;font-feature-settings:normal;text-align:start;letter-spacing:0px;word-spacing:0px;writing-mode:lr-tb;text-anchor:start;fill:#DDA288;fill-opacity:1;stroke:none;stroke-width:0.26458332"
       xml:space="preserve"><tspan
         id="tspan4772"
         style="font-style:normal;font-variant:normal;font-weight:100;font-stretch:normal;font-size:10.58333302px;font-family:Manjari;-inkscape-font-specification:'Manjari, Thin';font-variant-ligatures:normal;font-variant-caps:normal;font-variant-numeric:normal;font-feature-settings:normal;text-align:start;writing-mode:lr-tb;text-anchor:start">F</tspan></text>
    <text
       id="text4778"
       y="52.974979"
       x="128.45514"
       style="font-style:normal;font-variant:normal;font-weight:100;font-stretch:normal;font-size:10.58333302px;line-height:1.25;font-family:Manjari;-inkscape-font-specification:'Manjari, Thin';font-variant-ligatures:normal;font-variant-caps:normal;font-variant-numeric:normal;font-feature-settings:normal;text-align:start;letter-spacing:0px;word-spacing:0px;writing-mode:lr-tb;text-anchor:start;fill:#DDA288;fill-opacity:1;stroke:none;stroke-width:0.26458332"
       xml:space="preserve"><tspan
         id="tspan4776"
         style="font-style:normal;font-variant:normal;font-weight:100;font-stretch:normal;font-size:10.58333302px;font-family:Manjari;-inkscape-font-specification:'Manjari, Thin';font-variant-ligatures:normal;font-variant-caps:normal;font-variant-numeric:normal;font-feature-settings:normal;text-align:start;writing-mode:lr-tb;text-anchor:start">R</tspan></text>
    <text
       id="text4786"
       y="53.050957"
       x="143.50488"
       style="font-style:normal;font-variant:normal;font-weight:100;font-stretch:normal;font-size:10.58333302px;line-height:1.25;font-family:Manjari;-inkscape-font-specification:'Manjari, Thin';font-variant-ligatures:normal;font-variant-caps:normal;font-variant-numeric:normal;font-feature-settings:normal;text-align:start;letter-spacing:0px;word-spacing:0px;writing-mode:lr-tb;text-anchor:start;fill:#DDA288;fill-opacity:1;stroke:none;stroke-width:0.26458332"
       xml:space="preserve"><tspan
         id="tspan4784"
         style="font-style:normal;font-variant:normal;font-weight:100;font-stretch:normal;font-size:10.58333302px;font-family:Manjari;-inkscape-font-specification:'Manjari, Thin';font-variant-ligatures:normal;font-variant-caps:normal;font-variant-numeric:normal;font-feature-settings:normal;text-align:start;writing-mode:lr-tb;text-anchor:start">M</tspan></text>
    <text
       id="text4790"
       y="52.890221"
       x="155.62218"
       style="font-style:normal;font-variant:normal;font-weight:100;font-stretch:normal;font-size:10.58333302px;line-height:1.25;font-family:Manjari;-inkscape-font-specification:'Manjari, Thin';font-variant-ligatures:normal;font-variant-caps:normal;font-variant-numeric:normal;font-feature-settings:normal;text-align:start;letter-spacing:0px;word-spacing:0px;writing-mode:lr-tb;text-anchor:start;fill:#DDA288;fill-opacity:1;stroke:none;stroke-width:0.26458332"
       xml:space="preserve"><tspan
         id="tspan4788"
         style="font-style:normal;font-variant:normal;font-weight:100;font-stretch:normal;font-size:10.58333302px;font-family:Manjari;-inkscape-font-specification:'Manjari, Thin';font-variant-ligatures:normal;font-variant-caps:normal;font-variant-numeric:normal;font-feature-settings:normal;text-align:start;writing-mode:lr-tb;text-anchor:start">I</tspan></text>
    <text
       id="text4794"
       y="52.907009"
       x="157.45706"
       style="font-style:normal;font-variant:normal;font-weight:100;font-stretch:normal;font-size:10.58333302px;line-height:1.25;font-family:Manjari;-inkscape-font-specification:'Manjari, Thin';font-variant-ligatures:normal;font-variant-caps:normal;font-variant-numeric:normal;font-feature-settings:normal;text-align:start;letter-spacing:0px;word-spacing:0px;writing-mode:lr-tb;text-anchor:start;fill:#DDA288;fill-opacity:1;stroke:none;stroke-width:0.26458332"
       xml:space="preserve"><tspan
         id="tspan4792"
         style="font-style:normal;font-variant:normal;font-weight:100;font-stretch:normal;font-size:10.58333302px;font-family:Manjari;-inkscape-font-specification:'Manjari, Thin';font-variant-ligatures:normal;font-variant-caps:normal;font-variant-numeric:normal;font-feature-settings:normal;text-align:start;writing-mode:lr-tb;text-anchor:start">T</tspan></text>
    <path
       style="fill:#DDA288;fill-opacity:1;stroke:#DDA288;stroke-width:0.8444379;stroke-miterlimit:4;stroke-dasharray:none;stroke-opacity:1;paint-order:stroke markers fill"
       d="m 167.59766,25.193359 c -3.29916,0.01187 -6.49127,1.332253 -9.08594,3.88086 -4.13908,4.065615 -5.11995,10.027358 -2.50391,15.224609 1.70551,3.388369 5.16072,6.193754 8.65625,7.027344 0.38812,0.09251 0.86077,0.161879 1.375,0.208984 0.26204,-2.018628 0.52268,-4.036825 0.74414,-6.054687 l -1.89453,-0.0332 c -2.10997,0.0406 -3.58018,-1.324724 -3.54687,-3.128907 l 0.10351,-11.654297 c 0.0119,-0.645021 0.6323,-1.17888 1.38672,-1.193359 l 0.0449,-0.002 c 0.75435,-0.01446 1.35555,0.497616 1.34375,1.142578 l -0.0762,10.238281 c 0.0286,0.555023 0.55756,0.985402 1.2168,0.972657 l 0.041,-0.002 c 0.65949,-0.01267 1.20659,-0.463018 1.25586,-1.019531 L 166.73242,30.75 c 0.0118,-0.644971 0.6348,-1.178806 1.38867,-1.193359 l 0.0449,-0.002 c 0.75408,-0.01448 1.35567,0.497718 1.34375,1.142578 L 169.43354,40.748 c 0.0291,0.55502 0.55927,0.985344 1.21875,0.972656 l 0.041,-0.002 c 0.65965,-0.01283 1.20463,-0.463018 1.25391,-1.019531 l 0.18164,-9.861328 c 0.0118,-0.64498 0.6323,-1.178853 1.38671,-1.19336 l 0.0449,-0.002 c 0.75434,-0.01459 1.35573,0.497551 1.34375,1.142578 L 174.69727,42.0625 c -0.0332,1.804321 -1.77092,3.299259 -3.88086,3.339844 l -1.67969,0.0332 c 0.14824,2.020391 0.33445,4.038974 0.52344,6.058594 0.38669,-0.04336 0.77372,-0.08707 1.08007,-0.158203 4.2169,-0.979102 8.2235,-4.687139 9.5918,-8.876954 2.02224,-6.192121 -0.87838,-12.968057 -6.78711,-15.855468 -1.94958,-0.952711 -3.96777,-1.417279 -5.94726,-1.410157 z"
       transform="matrix(0.26458333,0,0,0.26458333,62.988255,39.618552)"
       id="path5073-4"
       inkscape:connector-curvature="0" />
    <path
       style="fill:#DDA288;fill-opacity:1;stroke:#DDA288;stroke-width:0.8444379;stroke-miterlimit:4;stroke-dasharray:none;stroke-opacity:1;paint-order:stroke markers fill"
       d="m 287.97656,24.429688 c -3.29916,0.01187 -6.49322,1.332253 -9.08789,3.880859 -4.13907,4.065615 -5.11799,10.027358 -2.50195,15.224609 1.70551,3.388369 5.16071,6.193754 8.65625,7.027344 0.26099,0.06221 0.56846,0.110658 0.89258,0.152344 l 0.004,-1.730469 c -0.25687,-4.272677 -0.15732,-11.108949 0.11524,-19.314453 -0.002,-0.812814 0.57078,-1.469972 1.27929,-1.46875 0.19048,3.15e-4 0.36693,0.05115 0.5293,0.136719 v -0.01563 c 0,0 0.0331,0.02481 0.0801,0.0625 0.12202,0.07798 0.23459,0.174028 0.33008,0.291015 0.93899,0.885748 3.94231,4.495638 4.20117,9.367188 0.24853,4.663243 -2.37743,8.859668 -3.52734,11.068359 0.0592,0.587052 0.12372,1.122675 0.18554,1.689453 0.74069,-0.03934 1.44822,-0.103575 1.98633,-0.228515 4.2169,-0.979102 8.2235,-4.687139 9.5918,-8.876954 2.02223,-6.19212 -0.87839,-12.968057 -6.78711,-15.855468 -1.94959,-0.95271 -3.96777,-1.417279 -5.94727,-1.410156 z"
       transform="matrix(0.26458333,0,0,0.26458333,62.988255,39.618552)"
       id="path5073-4-1"
       inkscape:connector-curvature="0" />
    <path
       style="fill:#DDA288;fill-opacity:0;stroke:none;stroke-width:0.50587165;stroke-miterlimit:4;stroke-dasharray:none;stroke-opacity:1;paint-order:stroke markers fill"
       d="m 44.08113,25.62293 c 0,-1.793051 0.297475,-2.466621 1.715705,-3.884851 4.959779,-4.959779 2.889601,-16.2650098 -2.978396,-16.2650098 -5.933179,0 -8.024101,11.9122418 -2.883209,16.4260048 1.536591,1.349144 1.706487,1.738406 1.449615,3.321323 -0.361582,2.228167 -0.502037,2.367125 -2.010056,1.988637 -2.324537,-0.583422 -6.119846,-3.598013 -7.640528,-6.068826 -1.208862,-1.964167 -1.557308,-3.175533 -1.71471,-5.961157 -0.247758,-4.384696 0.70079,-7.0481543 3.526466,-9.9020781 2.836029,-2.86438 5.656306,-4.1475596 9.115847,-4.1475596 7.879984,0 13.770527,5.7428378 13.698909,13.3554087 -0.05697,6.0561 -4.546584,11.563165 -10.526292,12.911808 l -1.753351,0.395445 z"
       id="path4877"
       inkscape:connector-curvature="0"
       transform="matrix(0.26458333,0,0,0.26458333,88.198385,45.795047)" />
  </g>
</svg>
