<svg id="sandwich" xmlns="http://www.w3.org/2000/svg" width="70.726" height="40.37" viewBox="0 0 70.726 40.37" fill="#5A4E4D">
  <g id="Group_10" data-name="Group 10">
    <g id="Group_9" data-name="Group 9" transform="translate(0 0)">
      <path id="Path_40" data-name="Path 40" d="M69.417,313.825h-13.7l-2.991,3.364a1.263,1.263,0,0,1-1.888,0l-5.151-5.8a12.765,12.765,0,0,1-10.323,4.957,12.764,12.764,0,0,1-10.322-4.957l-5.151,5.8a1.263,1.263,0,0,1-1.888,0l-2.991-3.364H1.308a1.074,1.074,0,0,0-.822.453A2.245,2.245,0,0,0,0,315.719c0,4.526,2.893,8.209,6.448,8.209H64.277a5.745,5.745,0,0,0,4.466-2.309,9.263,9.263,0,0,0,1.982-5.9C70.724,314.71,70.113,313.825,69.417,313.825Zm-63.2,6.794h0a1.476,1.476,0,0,1-.265.417,1.25,1.25,0,0,1-1.377.265,1.453,1.453,0,0,1-.416-.265,1.468,1.468,0,0,1-.266-.417,1.066,1.066,0,0,1-.1-.48,1.26,1.26,0,0,1,.1-.48,1.3,1.3,0,0,1,.266-.417,1.456,1.456,0,0,1,.416-.265,1.155,1.155,0,0,1,.96,0,1.307,1.307,0,0,1,.417.265,1.46,1.46,0,0,1,.265.417A1.19,1.19,0,0,1,6.214,320.619ZM10,318.093a1.476,1.476,0,0,1-.265.417,1.458,1.458,0,0,1-.417.265,1.249,1.249,0,0,1-1.376-.265,1.468,1.468,0,0,1-.266-.417,1.066,1.066,0,0,1-.1-.48,1.259,1.259,0,0,1,.1-.48,1.3,1.3,0,0,1,.266-.417,1.456,1.456,0,0,1,.416-.265,1.155,1.155,0,0,1,.96,0,1.458,1.458,0,0,1,.417.265,1.309,1.309,0,0,1,.265.417,1.263,1.263,0,0,1,.1.48A1.058,1.058,0,0,1,10,318.093Zm3.789,2.526h0a1.476,1.476,0,0,1-.265.417,1.25,1.25,0,0,1-1.377.265,1.142,1.142,0,0,1-.682-.682,1.068,1.068,0,0,1-.1-.48,1.259,1.259,0,0,1,.1-.48,1.3,1.3,0,0,1,.266-.417,1.457,1.457,0,0,1,.416-.265,1.155,1.155,0,0,1,.96,0,1.307,1.307,0,0,1,.417.265,1.46,1.46,0,0,1,.265.417A1.189,1.189,0,0,1,13.792,320.619Zm10.1,0a1.476,1.476,0,0,1-.265.417,1.458,1.458,0,0,1-.417.265,1.19,1.19,0,0,1-.96,0,1.142,1.142,0,0,1-.682-.682,1.2,1.2,0,0,1,0-.959,1.3,1.3,0,0,1,.266-.417,1.244,1.244,0,0,1,2.058.417,1.188,1.188,0,0,1,0,.959Zm3.789-2.526a1.476,1.476,0,0,1-.265.417,1.458,1.458,0,0,1-.417.265,1.249,1.249,0,0,1-1.376-.265,1.848,1.848,0,0,1-.278-.417,1.248,1.248,0,0,1-.088-.48,1.065,1.065,0,0,1,.1-.48,1.142,1.142,0,0,1,.682-.682,1.155,1.155,0,0,1,.96,0,1.459,1.459,0,0,1,.417.265,1.309,1.309,0,0,1,.265.417,1.262,1.262,0,0,1,.1.48A1.059,1.059,0,0,1,27.684,318.093Zm3.789,2.526a1.476,1.476,0,0,1-.265.417,1.458,1.458,0,0,1-.417.265,1.19,1.19,0,0,1-.96,0,1.142,1.142,0,0,1-.682-.682,1.2,1.2,0,0,1,0-.959,1.3,1.3,0,0,1,.266-.417,1.244,1.244,0,0,1,2.058.417,1.188,1.188,0,0,1,0,.959Zm10.116,0a1.867,1.867,0,0,1-.278.417,1.458,1.458,0,0,1-.417.265,1.249,1.249,0,0,1-1.376-.265,1.848,1.848,0,0,1-.278-.417,1.248,1.248,0,0,1-.088-.48,1.065,1.065,0,0,1,.1-.48,1.3,1.3,0,0,1,.266-.417,1.456,1.456,0,0,1,.416-.265,1.155,1.155,0,0,1,.96,0,1.307,1.307,0,0,1,.417.265,1.46,1.46,0,0,1,.265.417,1.058,1.058,0,0,1,.1.48A1.24,1.24,0,0,1,41.588,320.619Zm3.776-2.526a1.476,1.476,0,0,1-.265.417,1.458,1.458,0,0,1-.417.265,1.251,1.251,0,0,1-1.642-1.642,1.142,1.142,0,0,1,.682-.682,1.155,1.155,0,0,1,.96,0,1.458,1.458,0,0,1,.417.265,1.309,1.309,0,0,1,.265.417,1.262,1.262,0,0,1,.1.48A1.058,1.058,0,0,1,45.365,318.093Zm3.8,2.526a1.866,1.866,0,0,1-.278.417,1.458,1.458,0,0,1-.417.265,1.249,1.249,0,0,1-1.376-.265,1.848,1.848,0,0,1-.278-.417,1.248,1.248,0,0,1-.088-.48,1.065,1.065,0,0,1,.1-.48,1.3,1.3,0,0,1,.266-.417,1.456,1.456,0,0,1,.416-.265,1.155,1.155,0,0,1,.96,0,1.307,1.307,0,0,1,.417.265,1.46,1.46,0,0,1,.265.417,1.058,1.058,0,0,1,.1.48A1.237,1.237,0,0,1,49.166,320.619Zm10.091,0h0a1.48,1.48,0,0,1-.265.417,1.458,1.458,0,0,1-.417.265,1.19,1.19,0,0,1-.96,0,1.142,1.142,0,0,1-.682-.682,1.2,1.2,0,0,1,0-.959,1.3,1.3,0,0,1,.266-.417,1.275,1.275,0,0,1,1.149-.342.823.823,0,0,1,.228.077.935.935,0,0,1,.228.113,2.13,2.13,0,0,1,.189.152,1.309,1.309,0,0,1,.265.417A1.187,1.187,0,0,1,59.257,320.619Zm3.789-2.526a1.476,1.476,0,0,1-.265.417,1.458,1.458,0,0,1-.417.265,1.251,1.251,0,0,1-1.642-1.642,1.142,1.142,0,0,1,.682-.682,1.155,1.155,0,0,1,.96,0,1.458,1.458,0,0,1,.417.265,1.309,1.309,0,0,1,.265.417,1.261,1.261,0,0,1,.1.48A1.058,1.058,0,0,1,63.046,318.093Zm3.789,2.526h0a1.48,1.48,0,0,1-.265.417,1.458,1.458,0,0,1-.417.265,1.19,1.19,0,0,1-.96,0,1.142,1.142,0,0,1-.682-.682,1.2,1.2,0,0,1,0-.959,1.3,1.3,0,0,1,.266-.417,1.962,1.962,0,0,1,.189-.152.94.94,0,0,1,.227-.113.827.827,0,0,1,.228-.077,1.162,1.162,0,0,1,.505,0,.823.823,0,0,1,.228.077.935.935,0,0,1,.228.113,2.13,2.13,0,0,1,.189.152,1.309,1.309,0,0,1,.265.417A1.188,1.188,0,0,1,66.835,320.619Z" transform="translate(0 -283.559)"/>
      <path id="Path_41" data-name="Path 41" d="M211.044,277.322h0l-2.834-3.188h-11.5l-2.833,3.188a10.582,10.582,0,0,0,17.162,0Z" transform="translate(-167.101 -251.445)"/>
      <path id="Path_42" data-name="Path 42" d="M18.289,274.134v5.052H28.527l-4.491-5.052Z" transform="translate(-15.763 -251.445)"/>
      <path id="Path_43" data-name="Path 43" d="M98.947,274.134H84.365l7.291,8.2Z" transform="translate(-72.712 -251.445)"/>
      <path id="Path_44" data-name="Path 44" d="M329.37,282.337l7.291-8.2H322.079Z" transform="translate(-277.59 -251.445)"/>
      <path id="Path_45" data-name="Path 45" d="M48.925,111.2a8.721,8.721,0,0,1,1.6,4.953,1.263,1.263,0,0,1-2.526,0,6.537,6.537,0,0,0-3.816-5.756c-2.082-.27-4.239-.441-6.449-.515a8.858,8.858,0,0,1,2.687,6.271,1.263,1.263,0,0,1-2.526,0,6.511,6.511,0,0,0-5.459-6.249q-2.3.1-4.51.334a8.914,8.914,0,0,1,2.391,5.915,1.263,1.263,0,0,1-2.526,0,6.5,6.5,0,0,0-3.255-5.458C10.318,113,0,119.711,0,127.613v2.431H70.728v-2.431C70.728,120.225,61.713,113.878,48.925,111.2Z" transform="translate(-0.004 -109.881)"/>
      <path id="Path_46" data-name="Path 46" d="M429.835,274.134h-5.748l-4.491,5.052h10.238Z" transform="translate(-361.637 -251.445)"/>
    </g>
  </g>
</svg>
