<svg xmlns="http://www.w3.org/2000/svg" width="50" height="49.082" viewBox="0 0 50 49.082">
  <g id="cook" transform="translate(0 -4.416)">
    <g id="Group_16" data-name="Group 16" transform="translate(0 4.416)">
      <g id="Group_15" data-name="Group 15" transform="translate(0 0)">
        <path id="Path_56" data-name="Path 56" d="M49.082,48.506H44.007L42.775,36.8l1.363,2.045.338,1.691a2.789,2.789,0,1,0,5.23-1.794l-.712-1.425a.09.09,0,0,0-.011-.014s0-.008,0-.012l-4.991-9.151a.837.837,0,0,0-.421-.374l-2.254-.9a7.431,7.431,0,0,0,1.839-9.406l-.429-4.294a3.292,3.292,0,0,0,2.2-2.927c0-1.791-1.778-3.256-4-3.325a4.99,4.99,0,0,0-8.647,0c-2.218.069-4,1.534-4,3.325a3.292,3.292,0,0,0,2.2,2.927l-.429,4.294a7.429,7.429,0,0,0,1.84,9.405l-2.254.9a.832.832,0,0,0-.34.253l-2.808,3.51L23.1,28.817l-.906-1.51a3.146,3.146,0,0,0-.562-.674V24.381a2.492,2.492,0,0,0-1.664-2.343V18.558H20.8a2.5,2.5,0,0,0,2.5-2.5V11.071a2.5,2.5,0,0,0-2.5-2.5H17.471a2.5,2.5,0,0,0-2.5,2.5v4.991a2.5,2.5,0,0,0,2.5,2.5H18.3v3.481a2.492,2.492,0,0,0-1.664,2.343v3.331A3.09,3.09,0,0,0,17.9,31.6l1.574.944,5.53,4.839a2.485,2.485,0,0,0,3.241.038l2.325-1.938L29.2,48.506H14.656l.976-1.952a4.157,4.157,0,0,0,2.67-3.872V40.866a2.49,2.49,0,0,0-.832-4.838H2.5a2.49,2.49,0,0,0-.832,4.838v1.817a4.157,4.157,0,0,0,2.67,3.872l.976,1.952H.832A.832.832,0,0,0,0,49.338v3.328a.832.832,0,0,0,.832.832h48.25a.832.832,0,0,0,.832-.832V49.338A.832.832,0,0,0,49.082,48.506ZM18.3,16.894H17.47a.833.833,0,0,1-.832-.832V11.071a.833.833,0,0,1,.832-.832H18.3ZM48.218,39.489a1.125,1.125,0,1,1-2.11.724l-.215-1.074,1.911-.478ZM42.672,29.2,47,37.145l-1.715.428-2.925-4.387L41.156,28.6Zm-1.826,5.162,1.489,14.142H30.872l1.488-14.142ZM32.692,32.7l1.226-4.663c.033.012.067.022.1.033.167.062.335.121.507.171.066.019.132.034.2.051.159.042.318.082.48.112.082.016.164.025.245.037.151.023.3.048.453.063.107.01.215.011.323.017.126.007.25.019.378.019s.251-.012.378-.019c.108-.006.215-.007.323-.017.153-.014.3-.039.453-.063.082-.012.164-.022.245-.037.162-.031.321-.072.48-.112.066-.017.132-.032.2-.051.172-.05.341-.108.507-.171.033-.012.067-.021.1-.033L40.516,32.7ZM29.948,10.239c0-.9,1.143-1.664,2.5-1.664a1.3,1.3,0,0,1,.141.011l.134.012a.846.846,0,0,0,.828-.5,3.326,3.326,0,0,1,6.115,0,.839.839,0,0,0,.828.5l.134-.012a1.268,1.268,0,0,1,.14-.011c1.353,0,2.5.762,2.5,1.664,0,.665-.672,1.3-1.635,1.546a.832.832,0,0,0-.622.888l.506,5.052H31.7l.5-5.051a.832.832,0,0,0-.622-.888C30.62,11.539,29.948,10.9,29.948,10.239Zm.832,10.815a5.8,5.8,0,0,1,.245-1.664H42.18a5.828,5.828,0,0,1-3.64,7.148l-.027.01a5.779,5.779,0,0,1-3.822,0l-.027-.01a5.836,5.836,0,0,1-3.884-5.485ZM19.965,10.239H20.8a.833.833,0,0,1,.832.832v4.991a.833.833,0,0,1-.832.832h-.832Zm-.832,13.31a.833.833,0,0,1,.832.832v1.446l-.016,0c-.02,0-.037-.012-.057-.014-.046-.006-.091,0-.136,0a3.128,3.128,0,0,0-.433,0c-.072,0-.144,0-.215.013a3.083,3.083,0,0,0-.5.111c-.071.022-.139.044-.208.07-.032.012-.064.019-.095.032v-1.65h0A.833.833,0,0,1,19.134,23.55Zm-.377,6.624a1.446,1.446,0,0,1-.547-1.913c0-.007.009-.011.012-.017a1.848,1.848,0,0,1,.108-.181,1.241,1.241,0,0,1,.538-.456l.035-.019a1.45,1.45,0,0,1,.448-.12l.034,0a1.485,1.485,0,0,1,.453.035l.047.011a1.449,1.449,0,0,1,.446.2l.013.007a1.464,1.464,0,0,1,.422.447l.648,1.081-1.577,1.577Zm8.423,5.97A.829.829,0,0,1,26.1,36.13l-4.917-4.3,1.34-1.34L26.1,33.35a.831.831,0,0,0,1.169-.13l3.19-3.988,1.59-.636-1.175,4.468ZM2.5,39.355a.832.832,0,0,1,0-1.664H17.47a.832.832,0,1,1,0,1.664Zm.832,3.328V41.019h13.31v1.664a2.5,2.5,0,0,1-2.5,2.5H5.823A2.5,2.5,0,0,1,3.328,42.683Zm10.3,4.159L12.8,48.506H10.815V46.842Zm-4.477,0v1.664H7.169l-.832-1.664Zm39.1,4.991H1.664V50.17H48.25Z" transform="translate(0 -4.416)" fill="#5a4e4d"/>
      </g>
    </g>
    <g id="Group_18" data-name="Group 18" transform="translate(33.276 37.692)">
      <g id="Group_17" data-name="Group 17">
        <path id="Path_57" data-name="Path 57" d="M325.823,324.416h-4.991a.832.832,0,0,0-.832.832v2.5a3.328,3.328,0,1,0,6.655,0v-2.5A.832.832,0,0,0,325.823,324.416Zm-.832,3.328a1.664,1.664,0,1,1-3.328,0V326.08h3.328Z" transform="translate(-320 -324.416)" fill="#5a4e4d"/>
      </g>
    </g>
    <g id="Group_20" data-name="Group 20" transform="translate(8.822 29.067)">
      <g id="Group_19" data-name="Group 19" transform="translate(0 0)">
        <rect id="Rectangle_24" data-name="Rectangle 24" width="2" height="4" transform="translate(0.178 0.431)" fill="#5a4e4d"/>
      </g>
    </g>
    <g id="Group_22" data-name="Group 22" transform="translate(13.572 31.103)">
      <g id="Group_21" data-name="Group 21" transform="translate(0 0)">
        <rect id="Rectangle_25" data-name="Rectangle 25" width="1" height="3" transform="translate(0.428 0.395)" fill="#5a4e4d"/>
      </g>
    </g>
    <g id="Group_24" data-name="Group 24" transform="translate(4.75 31.103)">
      <g id="Group_23" data-name="Group 23" transform="translate(0 0)">
        <rect id="Rectangle_26" data-name="Rectangle 26" width="2" height="3" transform="translate(0.25 0.395)" fill="#5a4e4d"/>
      </g>
    </g>
    <g id="Group_26" data-name="Group 26" transform="translate(8.822 26.353)">
      <g id="Group_25" data-name="Group 25" transform="translate(0 0)">
        <rect id="Rectangle_27" data-name="Rectangle 27" width="2" height="1" transform="translate(0.178 0.145)" fill="#5a4e4d"/>
      </g>
    </g>
    <g id="Group_28" data-name="Group 28" transform="translate(4.75 27.71)">
      <g id="Group_27" data-name="Group 27" transform="translate(0 0)">
        <rect id="Rectangle_28" data-name="Rectangle 28" width="2" height="2" transform="translate(0.25 -0.212)" fill="#5a4e4d"/>
      </g>
    </g>
    <g id="Group_30" data-name="Group 30" transform="translate(13.572 27.71)">
      <g id="Group_29" data-name="Group 29" transform="translate(0 0)">
        <rect id="Rectangle_29" data-name="Rectangle 29" width="1" height="2" transform="translate(0.428 -0.212)" fill="#5a4e4d"/>
      </g>
    </g>
  </g>
</svg>
