<svg xmlns="http://www.w3.org/2000/svg" width="49.082" height="49.081" viewBox="0 0 49.082 49.081">
  <g id="cuting" transform="translate(0 0)">
    <g id="_029---Preparing-Vegetables" data-name="029---Preparing-Vegetables" transform="translate(0 0)">
      <path id="Shape" d="M47.446,48.361V46.724a1.636,1.636,0,0,0-1.636-1.636H35.993a1.636,1.636,0,0,0-1.636,1.636v1.636H22.139a12.214,12.214,0,0,0,1.584-6.544c0-4.663-1.758-8.18-4.09-8.18a15.665,15.665,0,0,1-4.145-.9A12.287,12.287,0,0,0,12.27,32c-2.045,0-3.361,2.748-3.861,6-.276-.087-.547-.176-.849-.251a8.452,8.452,0,0,0-6.381.931.818.818,0,0,0,.9,1.363,6.915,6.915,0,0,1,5.077-.707c.38.095.731.2,1.063.318-.008.126-.016.251-.023.377a12.423,12.423,0,0,0-7.148,3.659.818.818,0,1,0,1.157,1.157,10.861,10.861,0,0,1,5.98-3.158c.007.2.019.4.031.594a14.3,14.3,0,0,0-4.71,6.076H1.636A1.636,1.636,0,0,0,0,50v3.272A1.636,1.636,0,0,0,1.636,54.9H47.446a1.636,1.636,0,0,0,1.636-1.636V50A1.636,1.636,0,0,0,47.446,48.361ZM35.993,46.724h9.816v1.636H35.993ZM12.27,33.636A11.971,11.971,0,0,1,15,34.29a16.726,16.726,0,0,0,4.629.982c1,0,2.454,2.55,2.454,6.544s-1.453,6.544-2.454,6.544H12.27c-.834,0-1.98-2-2.34-5.266a13.46,13.46,0,0,1,2.628-1.33.814.814,0,0,0,.292-1.342,10.415,10.415,0,0,0-2.883-1.834C10.362,35.5,11.463,33.636,12.27,33.636ZM8.442,44.221a11.525,11.525,0,0,0,1.409,4.14H5.3A12.935,12.935,0,0,1,8.442,44.221Zm39,9.048H1.636V50H47.446Z" transform="translate(0 -5.823)" fill="#5a4e4d"/>
      <path id="Shape-2" data-name="Shape" d="M24.155,10.213,14.9.959a3.272,3.272,0,0,0-4.628,0L7.959,3.272a3.272,3.272,0,0,0,0,4.628l2.313,2.313L16.056,16a3.272,3.272,0,0,0,4.628,0l.578-.578,1.157,1.157-2.892,2.895a2.46,2.46,0,0,0,0,3.471L31.185,34.6a10.634,10.634,0,0,0,15.039,0,.818.818,0,0,0,0-1.157L26.469,13.684l-1.9-1.9a1.589,1.589,0,0,0-.418-1.576Zm-6.942,4.628-1.157-1.157,1.157-1.158a.818.818,0,0,0-1.157-1.156L14.9,12.528,12.007,9.636l1.157-1.157a.818.818,0,0,0-1.157-1.158L10.851,8.478,9.115,6.743a1.636,1.636,0,0,1,0-2.314l2.313-2.313a1.636,1.636,0,0,1,2.314,0L23,11.371l-2.314,2.314-1.157,1.156a1.675,1.675,0,0,1-2.314,0Zm5.206-.578,1.158-1.157,1.157,1.157-1.158,1.157Zm1.736,2.893,1.735-1.736L42.129,31.658a5.726,5.726,0,0,1-7.473-.533L22.419,18.89l1.734-1.734ZM38.7,36.075a8.939,8.939,0,0,1-6.363-2.636L20.684,21.782a.818.818,0,0,1,0-1.157l.578-.578L33.5,32.283a7.362,7.362,0,0,0,9.8.545l1.168,1.166A8.935,8.935,0,0,1,38.7,36.075Z" transform="translate(-1.274 0)" fill="#5a4e4d"/>
      <path id="Shape-3" data-name="Shape" d="M20.452,47.735a.818.818,0,0,0,1.1-.366c1.767-3.535.115-8.589.043-8.8a.819.819,0,0,0-1.554.517c.015.046,1.511,4.621.043,7.556a.818.818,0,0,0,.37,1.1Z" transform="translate(-3.639 -6.916)" fill="#5a4e4d"/>
    </g>
  </g>
</svg>
