<svg xmlns="http://www.w3.org/2000/svg" width="48" height="48" viewBox="0 0 48 48">
  <path id="toolbox" d="M47.2,9.6H44a.8.8,0,0,0-.8.8v2.4H41.6v-4a.8.8,0,0,0-.057-.3L40.9,6.9l-.96-2.4a.8.8,0,0,0-1.485,0L37.5,6.9l-.64,1.6a.8.8,0,0,0-.059.3v4H35.2V.8a.8.8,0,0,0-.8-.8H28a.8.8,0,0,0-.8.8v12h-4V6.531l.759-2.277a.8.8,0,0,0,.017-.446l-.8-3.2A.8.8,0,0,0,22.4,0H19.2a.8.8,0,0,0-.776.606l-.8,3.2a.8.8,0,0,0,.017.446L18.4,6.531V12.8H14.417a5.59,5.59,0,0,1,.623-2.372c.173-.32.354-.617.529-.9A6.383,6.383,0,0,0,16.8,6a5.957,5.957,0,0,0-1.787-4.273A6.062,6.062,0,0,0,10.72,0a5.881,5.881,0,0,0-2.13.442.8.8,0,0,0-.27,1.308l2.544,2.54-1.691,1.7L6.6,3.419a.8.8,0,0,0-1.3.25,5.893,5.893,0,0,0-.489,2.644A7.208,7.208,0,0,0,6.134,9.681l.08.136a6.127,6.127,0,0,1,.97,2.984H4.8V10.4A.8.8,0,0,0,4,9.6H.8a.8.8,0,0,0-.8.8V47.2a.8.8,0,0,0,.8.8H47.2a.8.8,0,0,0,.8-.8V10.4a.8.8,0,0,0-.8-.8Zm-12,16v-8h1.6v8ZM38.4,8.955,38.782,8h.837L40,8.955V25.6H38.4ZM41.6,17.6h1.6v8H41.6Zm1.6-3.2V16H41.6V14.4Zm-6.4,0V16H35.2V14.4ZM33.6,1.6v24H28.8V24h2.4V22.4H28.8V20.8h2.4V19.2H28.8V17.6h2.4V16H28.8V14.4h2.4V12.8H28.8V11.2h2.4V9.6H28.8V8h2.4V6.4H28.8V4.8h2.4V3.2H28.8V1.6Zm-8.305,24-.8-1.6H24.8a.8.8,0,0,0,.8-.8V20a.8.8,0,0,0-.8-.8H23.2V17.6h4v8ZM14.4,17.6h4v1.6H16.8a.8.8,0,0,0-.8.8v3.2a.8.8,0,0,0,.8.8h.306l-.8,1.6H14.4Zm4.681,5.18a.8.8,0,0,0-.681-.38h-.8V20.8H24v1.6h-.8a.8.8,0,0,0-.716,1.157L23.506,25.6H18.095l1.026-2.043a.8.8,0,0,0-.039-.778ZM27.2,14.4V16h-4V14.4ZM19.825,1.6h1.95l.592,2.368-.726,2.179A.8.8,0,0,0,21.6,6.4V19.2H20V6.4a.808.808,0,0,0-.041-.253L19.233,3.97ZM18.4,16h-4V14.4h4ZM6.434,5.516l1.609,1.6a1.6,1.6,0,0,0,2.259,0L12,5.423a1.6,1.6,0,0,0,0-2.259L10.45,1.617c.1-.009.194-.014.29-.015A4.4,4.4,0,0,1,15.2,6a4.9,4.9,0,0,1-1,2.69c-.189.311-.384.63-.573.98a7.269,7.269,0,0,0-.83,3.418V25.6H11.552V12h-1.6V25.6H8.8V13.009A7.58,7.58,0,0,0,7.587,8.993L7.5,8.85A5.833,5.833,0,0,1,6.407,6.234a4.169,4.169,0,0,1,.026-.719ZM4.8,17.6H7.2v8H4.8Zm2.4-3.2V16H4.8V14.4ZM1.6,11.2H3.2V46.4H1.6Zm3.2,16H43.2V46.4H4.8ZM46.4,46.4H44.8V11.2h1.6Zm0,0" transform="translate(0 -0.001)" fill="#5a4e4d"/>
</svg>
