<svg xmlns="http://www.w3.org/2000/svg" width="49.175" height="49.175" viewBox="0 0 49.175 49.175">
  <g id="vegetable" transform="translate(-1 -1)">
    <path id="Path_58" data-name="Path 58" d="M50.175,28.72A11.02,11.02,0,0,0,45.7,19.9a3.375,3.375,0,0,0-2-.656,3.339,3.339,0,0,0-2.349.966c-.115-.1-.22-.2-.339-.293A3.3,3.3,0,0,0,39.5,19.3l.35-3.846c.008-.092.012-.185.012-.278A3.073,3.073,0,0,0,36.795,12.1h-.206a3.073,3.073,0,0,0-3.069,3.069c0,.093,0,.186.013.278l.351,3.863a3.4,3.4,0,0,0-1.4.6c-.142.106-.268.228-.4.34-.071-.073-.145-.141-.222-.207a4.635,4.635,0,0,0-.82-3.577A4.756,4.756,0,0,0,26.9,8.94a4.739,4.739,0,0,0-3.156-2.984,4.693,4.693,0,0,0-3.982-1.775,4.753,4.753,0,0,0-8.6-.8A4.781,4.781,0,0,0,6.718,6.954,6.373,6.373,0,0,0,2.586,12.9a6.31,6.31,0,0,0,2.775,5.241,4.737,4.737,0,0,0,1.328,5.55,4.593,4.593,0,0,0-.137,1.106,4.767,4.767,0,0,0,4.188,4.725l1.754,4.914a8.77,8.77,0,0,0-2.253,2.443l-4.155-.923A2.149,2.149,0,0,0,5.6,35.9a2.225,2.225,0,0,0-2.222,2.222v.314a2.2,2.2,0,0,0,.1.636h-.1a2.379,2.379,0,0,0,0,4.759h.1a2.2,2.2,0,0,0-.1.636v.314A2.225,2.225,0,0,0,5.6,47a2.17,2.17,0,0,0,.482-.053l4.157-.924a8.718,8.718,0,0,0,7.415,4.15h.186a8.761,8.761,0,0,0,1.326-.1l27.2-4.184A4.481,4.481,0,0,0,47.6,37.4a10.97,10.97,0,0,0,2.572-7.018ZM40.049,21.176A9.751,9.751,0,0,1,43.83,28.89V31.8a9.792,9.792,0,0,1-1.169,4.638l-6.36-.979a15.815,15.815,0,0,1-.4-3.507v-3.22a15.791,15.791,0,0,1,.2-2.39c.194.017.388.034.592.034,2.261,0,3.966-1.023,3.966-2.379a2.157,2.157,0,0,0-1.415-1.85l.117-1.283a1.663,1.663,0,0,1,.69.308ZM36.589,13.69H36.8a1.485,1.485,0,0,1,1.483,1.483,1.269,1.269,0,0,1-.006.135l-.72,7.921.605.194c.695.222.914.515.914.577,0,.2-.844.793-2.379.793s-2.379-.6-2.379-.793c0-.063.219-.355.914-.578l.605-.194-.72-7.92c0-.045-.006-.09-.006-.135a1.485,1.485,0,0,1,1.483-1.483Zm-2.562,7.2.114,1.257A2.157,2.157,0,0,0,32.726,24c0,.874.713,1.6,1.821,2.017a17.475,17.475,0,0,0-.235,2.718v3.22A17.429,17.429,0,0,0,34.62,35.2l-4.676-.719a9.551,9.551,0,0,1-.391-2.682V28.889a9.662,9.662,0,0,1,3.878-7.709A1.774,1.774,0,0,1,34.027,20.895Zm-8.572,12.9a9.224,9.224,0,0,1-.661-3.407V28.719a9.432,9.432,0,0,1,3.835-7.546,1.788,1.788,0,0,1,1.053-.344,1.752,1.752,0,0,1,1.243.516,11.236,11.236,0,0,0-2.958,7.546V31.8a11.108,11.108,0,0,0,.274,2.42ZM25.53,9.963l.144.816.809-.18a3.167,3.167,0,0,1,2.953,5.311l-.546.556.546.556a3.153,3.153,0,0,1,.911,2.22c0,.024,0,.048,0,.072a3.287,3.287,0,0,0-2.655.583,11.057,11.057,0,0,0-3.351,4.028q-.451-1.4-.941-2.683A11.249,11.249,0,0,1,26.877,15.1l-.5-.618-.5-.619a12.553,12.553,0,0,0-3.461,5,49.285,49.285,0,0,0-3.308-6.4l-1.335.858a46.682,46.682,0,0,1,2.639,4.964A13.067,13.067,0,0,0,15.2,17.66l.158,1.578c1.193-.12,4.572-.062,6.15,1.549.556,1.367,1.1,2.865,1.588,4.47A13.426,13.426,0,0,0,17.656,24v1.586c.037,0,3.568.024,5.658,1.685a10.711,10.711,0,0,0-.106,1.447v1.668a10.823,10.823,0,0,0,.471,3.135l-4.511-.694c-.238-.036-.478-.061-.719-.079a3.169,3.169,0,0,1-2.954-4.324l.232-.607-.55-.347a3.156,3.156,0,0,1-.957-4.428l.494-.742-.795-.4a4.753,4.753,0,0,1,.841-8.813l.493-.141.074-.507a3.18,3.18,0,0,1,3.123-2.712.628.628,0,0,1,.086.01c.056.008.112.015.168.019l.569.046.224-.525a3.166,3.166,0,0,1,6.033.688Zm-13.66,18h-.559a3.149,3.149,0,0,1-2.954-4.3l.232-.607-.55-.347a3.155,3.155,0,0,1-.957-4.428l.494-.742-.795-.4a4.753,4.753,0,0,1,.84-8.813l.493-.141.074-.507a3.181,3.181,0,0,1,3.123-2.712.662.662,0,0,1,.089.01c.054.007.108.014.163.019l.571.048.224-.527a3.166,3.166,0,0,1,6.033.689l.144.816.809-.18a2.908,2.908,0,0,1,1.734.114,4.748,4.748,0,0,0-2.786,2.186,4.781,4.781,0,0,0-4.436,3.572A6.339,6.339,0,0,0,12.5,22.9a4.738,4.738,0,0,0,1.328,5.551,4.586,4.586,0,0,0-.137,1.1,4.773,4.773,0,0,0,1.549,3.52,8.638,8.638,0,0,0-1.359.523Zm-6.9,10.468v-.314a.647.647,0,0,1,.775-.621l3.775.839c-.092.24-.174.483-.245.732H5.6A.637.637,0,0,1,4.966,38.435ZM2.586,41.451a.794.794,0,0,1,.793-.793H8.971c-.023.262-.04.525-.04.793s.017.531.04.793H3.379a.794.794,0,0,1-.793-.793ZM5.739,45.4a.653.653,0,0,1-.773-.621v-.314A.637.637,0,0,1,5.6,43.83H9.269c.071.249.154.493.245.732Zm42.85-3.951a2.889,2.889,0,0,1-2.463,2.871l-27.2,4.184a7.154,7.154,0,0,1-1.087.083h-.186a7.138,7.138,0,1,1,0-14.277h.186a7.238,7.238,0,0,1,1.086.082l27.2,4.184A2.891,2.891,0,0,1,48.589,41.451Zm0-11.064a9.389,9.389,0,0,1-2.705,6.55l-1.576-.243A11.377,11.377,0,0,0,45.416,31.8V28.889A11.379,11.379,0,0,0,42.5,21.313a1.753,1.753,0,0,1,1.2-.484,1.777,1.777,0,0,1,1.053.346,9.428,9.428,0,0,1,3.835,7.545Z" transform="translate(0 0)" fill="#5a4e4d"/>
    <path id="Path_59" data-name="Path 59" d="M21,47h1.586v7.931H21Z" transform="translate(-4.137 -9.515)" fill="#5a4e4d"/>
    <path id="Path_60" data-name="Path 60" d="M29,47h1.586v7.931H29Z" transform="translate(-5.792 -9.515)" fill="#5a4e4d"/>
    <path id="Path_61" data-name="Path 61" d="M37,47h1.586v7.931H37Z" transform="translate(-7.447 -9.515)" fill="#5a4e4d"/>
    <path id="Path_62" data-name="Path 62" d="M45,49h1.586v4.759H45Z" transform="translate(-9.101 -9.929)" fill="#5a4e4d"/>
    <path id="Path_63" data-name="Path 63" d="M53,50h1.586v3.173H53Z" transform="translate(-10.756 -10.136)" fill="#5a4e4d"/>
  </g>
</svg>
