<svg xmlns="http://www.w3.org/2000/svg" width="27.135" height="32.524" viewBox="0 0 27.135 32.524">
  <g id="social" transform="translate(0 0)">
    <path id="Path_90" data-name="Path 90" d="M94.865,15.667a7.58,7.58,0,0,0,5.539-2.3A7.579,7.579,0,0,0,102.7,7.833a7.581,7.581,0,0,0-2.3-5.539,7.832,7.832,0,0,0-11.077,0,7.58,7.58,0,0,0-2.3,5.538,7.58,7.58,0,0,0,2.3,5.539A7.581,7.581,0,0,0,94.865,15.667Zm0,0" transform="translate(-81.503 0)" fill="#dda288"/>
    <path id="Path_91" data-name="Path 91" d="M27.069,256.615a19.348,19.348,0,0,0-.264-2.055,16.191,16.191,0,0,0-.505-2.066,10.2,10.2,0,0,0-.849-1.927A7.272,7.272,0,0,0,24.17,248.9a5.648,5.648,0,0,0-1.84-1.156,6.359,6.359,0,0,0-2.349-.425,2.384,2.384,0,0,0-1.273.54c-.382.249-.828.537-1.326.855a7.6,7.6,0,0,1-1.716.756,6.664,6.664,0,0,1-4.2,0,7.582,7.582,0,0,1-1.715-.756c-.494-.315-.94-.6-1.328-.856a2.381,2.381,0,0,0-1.273-.54,6.351,6.351,0,0,0-2.349.426,5.642,5.642,0,0,0-1.84,1.156,7.273,7.273,0,0,0-1.28,1.669,10.224,10.224,0,0,0-.849,1.927,16.23,16.23,0,0,0-.505,2.066,19.28,19.28,0,0,0-.264,2.056c-.043.622-.065,1.268-.065,1.921a5.4,5.4,0,0,0,1.6,4.086,5.774,5.774,0,0,0,4.133,1.508H21.4a5.773,5.773,0,0,0,4.133-1.508,5.4,5.4,0,0,0,1.6-4.086c0-.655-.022-1.3-.066-1.921Zm0,0" transform="translate(0 -231.606)" fill="#dda288"/>
  </g>
</svg>
